<svg xmlns="http://www.w3.org/2000/svg" width="423" height="162" viewBox="0 0 423 162" version="1.1"><path d="M 70.500 9.681 C 63.108 11.341, 62 12.086, 62 15.394 C 62 18.366, 61.508 18.868, 56.007 21.497 L 50.013 24.361 47.584 22.079 L 45.155 19.797 40.770 22.814 C 34.349 27.232, 33.825 28.076, 35.215 31.758 C 36.316 34.675, 36.148 35.130, 32.443 39.278 C 28.972 43.165, 28.021 43.682, 24.500 43.597 C 20.623 43.503, 20.409 43.674, 17.535 49.166 L 14.570 54.831 16.827 56.666 L 19.083 58.500 17.309 65.250 C 15.593 71.780, 15.433 72, 12.384 72 C 8.727 72, 8.035 73.531, 8.014 81.671 C 8.001 86.607, 8.136 86.871, 11 87.500 C 13.741 88.102, 14.003 88.519, 14.032 92.329 C 14.062 96.290, 14.142 96.399, 15.610 94.500 C 18.974 90.150, 20.886 85.045, 22.364 76.468 C 26.614 51.800, 44.693 31.823, 69.500 24.382 C 77.742 21.910, 95.258 21.910, 103.500 24.382 C 128.951 32.016, 146.943 52.380, 151.034 78.183 C 151.855 83.357, 153.273 87.602, 155.376 91.183 L 158.500 96.500 158.799 91.331 C 159.073 86.617, 159.359 86.071, 162.049 85.133 C 164.641 84.229, 165 83.627, 165 80.177 C 165 78.017, 164.719 74.844, 164.375 73.125 C 163.835 70.423, 163.326 70, 160.616 70 C 157.661 70, 157.347 69.624, 155.128 63.435 L 152.773 56.870 154.887 54.621 C 156.049 53.383, 157 52.041, 157 51.638 C 157 51.234, 155.442 48.468, 153.537 45.491 C 150.139 40.178, 150.017 40.098, 146.951 41.167 C 143.989 42.200, 143.578 42.010, 138.970 37.470 L 134.112 32.685 135.682 29.649 C 137.210 26.693, 137.177 26.553, 134.414 24.349 C 132.852 23.105, 130.112 21.298, 128.324 20.335 C 125.151 18.626, 125.015 18.638, 122.723 20.790 L 120.374 22.997 114.187 20.262 C 108.488 17.744, 108 17.279, 108 14.371 C 108 10.755, 107.173 10.273, 99.411 9.361 C 94.026 8.728, 93.986 8.743, 92.898 11.862 C 91.817 14.963, 91.725 15, 85.023 15 C 78.432 15, 78.208 14.916, 77 12 C 75.789 9.077, 74.786 8.719, 70.500 9.681 M 197.582 39.316 C 194.533 41.546, 195.979 44.431, 200.432 45 C 202.583 45.275, 204.523 46.046, 204.743 46.713 C 205.326 48.484, 200.280 49.478, 198.445 47.954 C 197.315 47.017, 196.622 46.978, 195.795 47.805 C 194.968 48.632, 195.388 49.197, 197.402 49.963 C 202.310 51.829, 207 50.461, 207 47.165 C 207 44.489, 204.962 43, 201.300 43 C 199.485 43, 198 42.598, 198 42.107 C 198 40.718, 200.906 39.938, 203.579 40.609 C 206.249 41.279, 206.959 39.582, 204.418 38.607 C 201.913 37.646, 199.528 37.893, 197.582 39.316 M 212.637 43.875 C 209.726 50.362, 209.573 51, 210.933 51 C 211.446 51, 212.151 50.100, 212.500 49 C 213.403 46.154, 218.293 46.311, 220.269 49.250 C 221.101 50.487, 222.085 51.208, 222.456 50.851 C 223.273 50.066, 217.326 38, 216.122 38 C 215.655 38, 214.087 40.644, 212.637 43.875 M 227 44.500 L 227 51 230.545 51 C 232.976 51, 234.862 50.228, 236.545 48.545 C 239.540 45.551, 239.613 44.049, 236.927 40.635 C 235.317 38.587, 233.979 38, 230.927 38 L 227 38 227 44.500 M 243.949 44.101 C 240.920 50.101, 240.770 53.655, 243.731 49.250 C 245.707 46.311, 250.597 46.154, 251.500 49 C 252.076 50.816, 254 51.874, 254 50.375 C 254 48.838, 248.638 38, 247.878 38 C 247.411 38, 245.643 40.746, 243.949 44.101 M 258 44.500 C 258 48.167, 258.436 51, 259 51 C 259.550 51, 260 49.650, 260 48 C 260 45.238, 260.278 45, 263.500 45 C 266.722 45, 267 45.238, 267 48 C 267 49.650, 267.450 51, 268 51 C 268.564 51, 269 48.167, 269 44.500 C 269 40.833, 268.564 38, 268 38 C 267.450 38, 267 39.125, 267 40.500 C 267 42.690, 266.567 43, 263.500 43 C 260.433 43, 260 42.690, 260 40.500 C 260 39.125, 259.550 38, 259 38 C 258.436 38, 258 40.833, 258 44.500 M 283.934 43.721 C 282.595 46.868, 281.350 49.793, 281.167 50.221 C 280.983 50.650, 281.363 51, 282.010 51 C 282.658 51, 283.423 50.100, 283.710 49 C 284.455 46.151, 289.293 46.311, 291.269 49.250 C 292.101 50.487, 293.085 51.208, 293.456 50.851 C 294.253 50.085, 288.341 38, 287.170 38 C 286.729 38, 285.273 40.575, 283.934 43.721 M 298 44.500 L 298 51 302.500 51 C 304.975 51, 307 50.550, 307 50 C 307 49.450, 305.425 49, 303.500 49 L 300 49 300 43.500 C 300 40.475, 299.550 38, 299 38 C 298.436 38, 298 40.833, 298 44.500 M 319 44.500 C 319 48.167, 319.436 51, 320 51 C 320.550 51, 321.012 49.313, 321.027 47.250 L 321.053 43.500 322.758 46.250 C 323.696 47.763, 324.705 49, 325 49 C 325.295 49, 326.304 47.763, 327.242 46.250 L 328.947 43.500 328.973 47.250 C 328.988 49.313, 329.450 51, 330 51 C 330.564 51, 331 48.167, 331 44.500 C 331 40.925, 330.621 38, 330.157 38 C 329.694 38, 328.467 39.575, 327.430 41.500 C 326.393 43.425, 325.281 45, 324.958 45 C 324.635 45, 323.619 43.425, 322.701 41.500 C 320.189 36.232, 319 37.197, 319 44.500 M 337.949 44.101 C 334.920 50.101, 334.770 53.655, 337.731 49.250 C 338.563 48.013, 340.259 47, 341.500 47 C 342.741 47, 344.437 48.013, 345.269 49.250 C 346.101 50.487, 347.069 51.224, 347.421 50.886 C 348.234 50.106, 343.031 38, 341.884 38 C 341.413 38, 339.643 40.746, 337.949 44.101 M 352 44.500 C 352 48.167, 352.436 51, 353 51 C 353.550 51, 354 48.901, 354 46.336 L 354 41.672 357.634 46.336 C 359.632 48.901, 361.657 51, 362.134 51 C 362.610 51, 363 48.075, 363 44.500 C 363 40.833, 362.564 38, 362 38 C 361.450 38, 360.987 39.913, 360.970 42.250 L 360.940 46.500 357.220 42.235 C 355.174 39.889, 353.163 37.976, 352.750 37.985 C 352.337 37.993, 352 40.925, 352 44.500 M 369.949 44.101 C 366.920 50.101, 366.770 53.655, 369.731 49.250 C 370.563 48.013, 372.259 47, 373.500 47 C 374.741 47, 376.437 48.013, 377.269 49.250 C 378.101 50.487, 379.055 51.238, 379.389 50.919 C 380.165 50.175, 374.946 38, 373.851 38 C 373.399 38, 371.643 40.746, 369.949 44.101 M 384 44.500 C 384 48.167, 384.436 51, 385 51 C 385.550 51, 386 49.875, 386 48.500 C 386 46.546, 386.511 46, 388.339 46 C 389.865 46, 391.076 46.870, 391.818 48.500 C 393.019 51.135, 395.651 52.079, 394.607 49.500 C 394.273 48.675, 393.727 47.325, 393.393 46.500 C 393.059 45.675, 393.284 45, 393.893 45 C 395.377 45, 395.308 40.708, 393.800 39.200 C 393.140 38.540, 390.665 38, 388.300 38 L 384 38 384 44.500 M 400.666 44.169 C 399.202 47.562, 398.198 50.532, 398.436 50.769 C 399.210 51.543, 401 49.918, 401 48.441 C 401 46.038, 406.522 46.652, 408.269 49.250 C 409.101 50.487, 410.085 51.208, 410.456 50.851 C 411.261 50.077, 405.334 38, 404.149 38 C 403.697 38, 402.130 40.776, 400.666 44.169 M 229 44.500 C 229 47.917, 229.377 49, 230.566 49 C 233.437 49, 236 46.955, 236 44.665 C 236 41.767, 234.220 40, 231.300 40 C 229.241 40, 229 40.471, 229 44.500 M 386 42 C 386 43.797, 386.504 44.078, 389.250 43.813 C 391.333 43.613, 392.500 42.961, 392.500 42 C 392.500 41.039, 391.333 40.387, 389.250 40.187 C 386.504 39.922, 386 40.203, 386 42 M 286.651 42.466 C 285.889 44.453, 286.350 45.409, 287.803 44.854 C 288.314 44.659, 288.421 43.633, 288.041 42.573 C 287.384 40.742, 287.315 40.737, 286.651 42.466 M 372.732 42.915 C 372.371 44.298, 372.661 45, 373.594 45 C 375.189 45, 375.355 44.109, 374.123 42.165 C 373.480 41.151, 373.147 41.331, 372.732 42.915 M 403.651 42.466 C 402.889 44.453, 403.350 45.409, 404.803 44.854 C 405.314 44.659, 405.421 43.633, 405.041 42.573 C 404.384 40.742, 404.315 40.737, 403.651 42.466 M 215.525 42.960 C 214.677 44.332, 215.428 45.362, 216.905 44.854 C 217.511 44.646, 217.588 43.940, 217.093 43.143 C 216.468 42.137, 216.063 42.090, 215.525 42.960 M 246.636 43.506 C 246.288 44.413, 246.639 45, 247.531 45 C 249.149 45, 249.517 43.437, 248.105 42.565 C 247.612 42.260, 246.952 42.684, 246.636 43.506 M 340.636 43.506 C 340.288 44.413, 340.639 45, 341.531 45 C 343.149 45, 343.517 43.437, 342.105 42.565 C 341.612 42.260, 340.952 42.684, 340.636 43.506 M 72.208 53.169 L 67.917 61.158 78.086 79.329 C 83.678 89.323, 88.650 97.651, 89.133 97.835 C 89.617 98.020, 89.777 98.551, 89.490 99.016 C 89.203 99.481, 89.436 100.151, 90.008 100.505 C 90.581 100.859, 90.985 100.778, 90.906 100.324 C 90.436 97.619, 91.128 96.112, 92.584 96.671 C 93.870 97.164, 93.917 97.455, 92.834 98.215 C 91.775 98.959, 91.809 99.063, 93 98.721 C 93.978 98.440, 94.392 97.321, 94.190 95.505 C 93.890 92.804, 93.996 92.737, 97.690 93.314 C 100.990 93.829, 101.266 93.733, 99.750 92.594 C 98.787 91.871, 98 90.922, 98 90.485 C 98 90.048, 98.889 90.495, 99.976 91.479 C 102.378 93.652, 101.635 95.324, 98.666 94.428 C 96.918 93.901, 96.737 94.024, 97.730 95.067 C 98.731 96.120, 99.404 96.122, 101.353 95.079 C 103.628 93.861, 103.673 93.652, 102.267 90.833 C 101.275 88.844, 100.282 88.062, 99.252 88.457 C 98.096 88.901, 97.979 88.731, 98.778 87.767 C 99.568 86.816, 96.904 81.253, 88.369 66.027 C 82.060 54.773, 76.808 45.478, 76.699 45.373 C 76.590 45.267, 74.569 48.775, 72.208 53.169 M 114.729 53.380 C 112.655 57.846, 110.967 61.766, 110.979 62.091 C 111.057 64.276, 122.181 82.409, 123.568 82.613 C 124.828 82.798, 124.972 82.572, 124.131 81.731 C 122.483 80.083, 122.736 77.962, 124.500 78.638 C 125.325 78.955, 126 78.716, 126 78.107 C 126 77.498, 126.702 77, 127.559 77 C 128.523 77, 128.844 76.523, 128.399 75.750 C 128.003 75.063, 128.048 74.834, 128.498 75.241 C 128.948 75.649, 129.920 75.481, 130.658 74.869 C 131.652 74.044, 132.395 74.083, 133.524 75.020 C 134.362 75.716, 135.222 76.108, 135.435 75.893 C 135.786 75.537, 120.018 46.621, 118.952 45.666 C 118.703 45.443, 116.803 48.914, 114.729 53.380 M 53.110 88.023 L 48.853 96.013 55.503 108.006 C 59.161 114.603, 62.304 120, 62.488 120 C 62.672 120, 62.672 119.213, 62.488 118.250 C 62.304 117.287, 62.119 115.911, 62.077 115.191 C 62.034 114.471, 61.555 114.157, 61.011 114.493 C 60.434 114.850, 60.284 114.424, 60.651 113.468 C 61.033 112.473, 61.531 112.242, 61.925 112.879 C 62.281 113.454, 63.563 113.666, 64.775 113.349 C 65.986 113.032, 66.763 112.425, 66.500 112 C 66.012 111.211, 69.410 109.746, 73.191 109.115 C 73.711 109.029, 58.837 81.504, 57.603 80.270 C 57.473 80.140, 55.452 83.629, 53.110 88.023 M 36.995 118.148 C 36.263 119.992, 34.455 123.337, 32.978 125.583 C 31.501 127.829, 30.789 129.684, 31.396 129.705 C 32.003 129.725, 36.325 130, 41 130.315 C 47.776 130.772, 48.318 130.722, 43.674 130.068 C 37.578 129.210, 33.809 127.270, 38.742 127.529 C 42.274 127.714, 46.805 125.523, 44.622 124.685 C 43.801 124.370, 42.879 124.650, 42.574 125.306 C 42.268 125.963, 42.234 125.600, 42.497 124.500 C 42.761 123.400, 41.930 120.767, 40.651 118.648 L 38.327 114.797 36.995 118.148 M 195 119 C 195 119.550, 195.900 120, 197 120 C 198.730 120, 199 120.667, 199 124.941 C 199 127.659, 199.450 130.160, 200 130.500 C 200.621 130.884, 201 129.010, 201 125.559 C 201 120.296, 201.133 120, 203.500 120 C 204.875 120, 206 119.550, 206 119 C 206 118.450, 203.525 118, 200.500 118 C 197.475 118, 195 118.450, 195 119 M 208.202 124.250 L 208.500 130.500 213.250 130.500 C 219.190 130.500, 220.009 128.609, 214.250 128.193 C 209.492 127.848, 207.983 125, 212.559 125 C 214.010 125, 214.851 124.567, 214.500 124 C 214.160 123.450, 213.009 123, 211.941 123 C 210.873 123, 210 122.325, 210 121.500 C 210 120.417, 211.111 120, 214 120 C 216.200 120, 218 119.550, 218 119 C 218 118.450, 215.729 118, 212.952 118 L 207.905 118 208.202 124.250 M 223.223 119.557 C 220.160 121.702, 220.160 127.298, 223.223 129.443 C 225.988 131.380, 229.028 131.431, 231.557 129.582 C 234.149 127.686, 232.898 126.634, 229.756 128.065 C 226.431 129.580, 223 127.814, 223 124.587 C 223 121, 225.536 119.386, 229.076 120.723 C 232.417 121.984, 234.049 120.632, 231.094 119.050 C 228.344 117.579, 225.814 117.741, 223.223 119.557 M 236 124.500 C 236 128.167, 236.436 131, 237 131 C 237.550 131, 238 129.650, 238 128 C 238 125.238, 238.278 125, 241.500 125 C 244.737 125, 245 125.230, 245 128.059 C 245 129.844, 245.417 130.861, 246 130.500 C 246.550 130.160, 247 127.209, 247 123.941 C 247 120.647, 246.554 118, 246 118 C 245.450 118, 245 119.125, 245 120.500 C 245 122.690, 244.567 123, 241.500 123 C 238.433 123, 238 122.690, 238 120.500 C 238 119.125, 237.550 118, 237 118 C 236.436 118, 236 120.833, 236 124.500 M 251 124.559 C 251 128.677, 251.372 130.888, 252 130.500 C 252.550 130.160, 253.009 128.221, 253.020 126.191 L 253.039 122.500 256.607 126.755 C 258.569 129.095, 260.585 130.756, 261.087 130.446 C 262.299 129.697, 262.269 118, 261.055 118 C 260.535 118, 259.972 120.069, 259.805 122.599 L 259.500 127.198 256.064 122.599 C 254.174 120.069, 252.262 118, 251.814 118 C 251.366 118, 251 120.952, 251 124.559 M 266 124 C 266 127.333, 266.444 130, 267 130 C 267.556 130, 268 127.333, 268 124 C 268 120.667, 267.556 118, 267 118 C 266.444 118, 266 120.667, 266 124 M 273.223 119.557 C 268.761 122.682, 271.731 131, 277.309 131 C 279.860 131, 283.854 128.521, 282.878 127.544 C 282.537 127.204, 281.132 127.438, 279.756 128.065 C 276.431 129.580, 273 127.814, 273 124.587 C 273 120.912, 275.525 119.382, 279.264 120.794 C 282.968 122.191, 284.276 121.406, 281.557 119.418 C 279.028 117.569, 275.988 117.620, 273.223 119.557 M 287.026 123.948 C 285.372 127.225, 284.445 130.157, 284.962 130.476 C 285.478 130.795, 286.388 130.143, 286.985 129.028 C 287.618 127.845, 289.083 127, 290.500 127 C 291.917 127, 293.382 127.845, 294.015 129.028 C 294.612 130.143, 295.489 130.816, 295.963 130.523 C 296.917 129.933, 291.976 118, 290.778 118 C 290.366 118, 288.678 120.677, 287.026 123.948 M 299 124.500 L 299 131 303.500 131 C 306.833 131, 308 130.611, 308 129.500 C 308 128.452, 306.944 128, 304.500 128 L 301 128 301 123 C 301 120.250, 300.550 118, 300 118 C 299.436 118, 299 120.833, 299 124.500 M 316.040 119.452 C 313.806 122.143, 315.224 124.462, 319.432 125 C 321.583 125.275, 323.516 126.024, 323.727 126.665 C 324.301 128.412, 320.641 129.194, 317.493 127.997 C 314.424 126.830, 312.722 127.566, 315.029 129.063 C 319.426 131.916, 326 130.812, 326 127.221 C 326 124.474, 323.980 123, 320.217 123 C 317.941 123, 316.978 122.591, 317.276 121.750 C 317.541 121, 319.174 120.588, 321.359 120.720 C 325.070 120.944, 326.279 119.705, 323.418 118.607 C 320.680 117.556, 317.291 117.945, 316.040 119.452 M 329 124.500 L 329 131 334 131 C 337.778 131, 339 130.633, 339 129.500 C 339 128.417, 337.889 128, 335 128 C 332.111 128, 331 127.583, 331 126.500 C 331 125.667, 331.889 125, 333 125 C 334.100 125, 335 124.550, 335 124 C 335 123.450, 334.100 123, 333 123 C 331.889 123, 331 122.333, 331 121.500 C 331 120.417, 332.111 120, 335 120 C 337.200 120, 339 119.550, 339 119 C 339 118.450, 336.750 118, 334 118 L 329 118 329 124.500 M 342 124.559 C 342 128.677, 342.372 130.888, 343 130.500 C 343.550 130.160, 344 129.009, 344 127.941 C 344 125.104, 347.025 125.529, 349.757 128.750 L 352.090 131.500 351.486 128.345 C 351.141 126.540, 351.336 124.910, 351.941 124.536 C 355.341 122.435, 351.261 118, 345.929 118 L 342 118 342 124.559 M 354 118.876 C 354 121.332, 359.141 131.031, 360.122 130.424 C 361.068 129.840, 366 119.811, 366 118.471 C 366 116.622, 364.018 118.772, 362.056 122.750 L 359.714 127.500 357.732 122.750 C 355.969 118.524, 354 116.480, 354 118.876 M 368 124 C 368 127.333, 368.444 130, 369 130 C 369.556 130, 370 127.333, 370 124 C 370 120.667, 369.556 118, 369 118 C 368.444 118, 368 120.667, 368 124 M 375.073 120.635 C 372.387 124.049, 372.460 125.551, 375.455 128.545 C 378.212 131.303, 381.666 131.696, 384.557 129.582 C 387.149 127.686, 385.898 126.634, 382.756 128.065 C 379.431 129.580, 376 127.814, 376 124.587 C 376 121, 378.536 119.386, 382.076 120.723 C 385.417 121.984, 387.049 120.632, 384.094 119.050 C 380.701 117.235, 377.274 117.837, 375.073 120.635 M 389 124.500 L 389 131 394 131 C 397.778 131, 399 130.633, 399 129.500 C 399 128.417, 397.889 128, 395 128 C 392.111 128, 391 127.583, 391 126.500 C 391 125.667, 391.889 125, 393 125 C 394.100 125, 395 124.550, 395 124 C 395 123.450, 394.100 123, 393 123 C 391.889 123, 391 122.333, 391 121.500 C 391 120.417, 392.111 120, 395 120 C 397.200 120, 399 119.550, 399 119 C 399 118.450, 396.750 118, 394 118 L 389 118 389 124.500 M 402.582 119.316 C 399.533 121.546, 400.979 124.431, 405.432 125 C 407.583 125.275, 409.516 126.024, 409.727 126.665 C 410.279 128.344, 406.424 129.297, 404.104 128.055 C 400.793 126.284, 399.327 126.923, 401.861 129.033 C 405.616 132.161, 412 130.985, 412 127.165 C 412 124.489, 409.962 123, 406.300 123 C 404.485 123, 403 122.598, 403 122.107 C 403 120.718, 405.906 119.938, 408.579 120.609 C 411.249 121.279, 411.959 119.582, 409.418 118.607 C 406.913 117.646, 404.528 117.893, 402.582 119.316 M 344 122 C 344 123.547, 344.667 124, 346.941 124 C 350.266 124, 351.955 122.219, 349.878 120.904 C 347.263 119.247, 344 119.855, 344 122 M 289.638 122.500 C 289.291 123.405, 289.633 124, 290.500 124 C 291.367 124, 291.709 123.405, 291.362 122.500 C 291.045 121.675, 290.657 121, 290.500 121 C 290.343 121, 289.955 121.675, 289.638 122.500 M 38.570 124.886 C 38.269 125.374, 38.943 126.013, 40.068 126.308 C 41.746 126.746, 41.902 126.587, 40.935 125.421 C 39.554 123.757, 39.303 123.701, 38.570 124.886 M 47 125.827 C 47 126.282, 48.350 126.455, 50 126.213 C 51.650 125.971, 53 125.599, 53 125.387 C 53 125.174, 51.650 125, 50 125 C 48.350 125, 47 125.372, 47 125.827 M 41 144.087 C 47.032 149.450, 61.876 156.705, 70.500 158.505 C 80.609 160.614, 95.069 160.412, 104.377 158.032 C 113.620 155.668, 125.828 149.488, 132 144.050 L 136.500 140.085 131.131 140.043 C 126.736 140.008, 124.738 140.622, 120.121 143.426 C 99.557 155.918, 72.799 155.686, 51.889 142.834 C 48.283 140.618, 46.104 140.009, 41.889 140.043 L 36.500 140.085 41 144.087" stroke="none" fill="#232757" fill-rule="evenodd"/><path d="M 40.088 70.125 C 32.340 83.944, 26 95.419, 26 95.625 C 26 95.831, 31.136 96, 37.413 96 L 48.826 96 52.913 88.423 C 55.161 84.256, 57 80.674, 57 80.464 C 57 80.253, 53.404 79.950, 49.008 79.790 L 41.017 79.500 45.877 71 L 50.737 62.500 59.135 62.214 L 67.533 61.929 71.766 54.091 C 74.095 49.779, 76 45.970, 76 45.626 C 76 45.282, 71.090 45, 65.088 45 L 54.176 45 40.088 70.125 M 92.090 52.453 C 89.841 56.552, 88 60.377, 88 60.953 C 88 61.620, 92.089 62, 99.281 62 L 110.561 62 114.281 54.483 C 116.326 50.349, 118 46.524, 118 45.983 C 118 45.399, 113.574 45, 107.090 45 L 96.181 45 92.090 52.453 M 202.325 63.459 C 193.414 67.335, 192.683 82.053, 201.171 86.683 C 203.953 88.200, 207.416 88.552, 222.258 88.830 C 238.554 89.135, 240.101 89.320, 241.043 91.081 C 241.752 92.406, 241.739 93.619, 241 95 C 239.980 96.907, 238.906 97, 217.965 97 L 196 97 196 102.064 L 196 107.129 220.297 106.814 C 246.561 106.475, 247.844 106.220, 251.520 100.610 C 253.418 97.713, 253.684 90.065, 252.025 86.061 C 249.580 80.158, 247.364 79.535, 227.501 79.165 C 217.052 78.971, 208.976 78.395, 208.251 77.793 C 206.381 76.242, 206.741 73.209, 208.934 72.035 C 210.074 71.425, 218.704 71, 229.934 71 L 249 71 249 66.500 L 249 62 227.250 62.039 C 211.022 62.068, 204.694 62.429, 202.325 63.459 M 273 66.931 L 273 72 292.300 72 C 313.097 72, 314 72.216, 314 77.200 L 314 80 294.950 80 C 273.921 80, 271.296 80.592, 268.517 85.967 C 266.556 89.759, 266.579 96.285, 268.566 100.128 C 271.330 105.473, 274.281 106, 301.468 106 L 326 106 326 89.149 C 326 61.893, 326.845 62.634, 295.250 62.181 L 273 61.863 273 66.931 M 340 83.936 L 340 106 345.500 106 L 351 106 351 89 L 351 72 360 72 L 369 72 369 89 L 369 106 375 106 L 381 106 381 89 L 381 72 388.429 72 C 399.109 72, 399 71.809, 399 90.571 L 399 106 405 106 L 411 106 411 89.468 C 411 61.362, 412.806 62.603, 371.296 62.186 L 340 61.871 340 83.936 M 130.490 75.016 C 130.144 75.575, 129.373 75.731, 128.776 75.362 C 128.129 74.961, 127.979 75.156, 128.405 75.845 C 128.827 76.530, 128.483 77, 127.559 77 C 126.702 77, 126 77.498, 126 78.107 C 126 78.716, 125.369 78.972, 124.599 78.676 C 122.079 77.709, 122.219 81.497, 124.909 87.065 C 126.353 90.054, 132.401 101.162, 138.349 111.750 L 149.164 131 157.582 131 C 162.212 131, 166 130.622, 166 130.161 C 166 129.224, 139.221 81.249, 137.556 79.203 C 135.424 76.581, 132.603 74, 131.870 74 C 131.457 74, 130.835 74.457, 130.490 75.016 M 280.170 90.750 C 279.172 92.691, 279.714 95.109, 281.400 96.235 C 282.005 96.639, 289.587 96.976, 298.250 96.985 L 314 97 314 93 L 314 89 297.535 89 C 282.864 89, 280.972 89.191, 280.170 90.750 M 98 90.551 C 98 90.952, 98.787 91.871, 99.750 92.594 C 101.266 93.733, 100.990 93.829, 97.690 93.314 C 93.996 92.737, 93.890 92.804, 94.190 95.505 C 94.392 97.321, 93.978 98.440, 93 98.721 C 91.809 99.063, 91.775 98.959, 92.834 98.215 C 93.917 97.455, 93.870 97.164, 92.584 96.671 C 91.565 96.279, 91 96.607, 91 97.590 C 91 98.431, 90.578 98.857, 90.062 98.539 C 89.068 97.924, 96.134 111.794, 102.778 123.500 L 106.752 130.500 115.498 130.791 C 123.306 131.050, 124.177 130.903, 123.608 129.421 C 122.256 125.897, 107.688 100.462, 106.623 99.765 C 106.006 99.361, 105.863 99.024, 106.307 99.015 C 106.750 99.007, 106.525 98.164, 105.807 97.142 C 104.139 94.770, 98 89.587, 98 90.551 M 97.566 95.106 C 98.237 96.192, 100.705 96.286, 101.345 95.250 C 101.600 94.838, 100.729 94.435, 99.411 94.356 C 98.092 94.277, 97.262 94.615, 97.566 95.106 M 69.016 110.114 C 67.099 111.151, 65.974 112.029, 66.516 112.063 C 67.057 112.098, 66.410 112.562, 65.078 113.095 C 63.411 113.761, 62.442 113.715, 61.968 112.947 C 61.511 112.208, 61.067 112.384, 60.651 113.468 C 60.284 114.424, 60.434 114.850, 61.011 114.493 C 61.857 113.970, 62.055 114.578, 61.989 117.505 C 61.982 117.782, 62.634 119.582, 63.438 121.505 L 64.898 125 59.699 125.024 C 56.840 125.037, 52.813 125.440, 50.750 125.919 C 48.652 126.406, 47 126.409, 47 125.926 C 47 125.451, 46.280 125.339, 45.399 125.677 C 44.519 126.015, 43.400 125.663, 42.914 124.896 C 42.176 123.730, 42.028 123.726, 42.015 124.872 C 42.003 125.940, 41.687 125.985, 40.589 125.074 C 39.624 124.273, 38.973 124.235, 38.530 124.951 C 37.958 125.878, 40.010 126.496, 42.324 126.094 C 42.778 126.015, 42.891 126.367, 42.577 126.876 C 42.262 127.385, 40.654 127.708, 39.002 127.593 C 35.420 127.345, 35.211 127.736, 38.250 129.001 C 40.011 129.734, 39.361 129.906, 35.256 129.790 C 30.560 129.659, 30.161 129.479, 31.427 128.072 C 32.876 126.462, 38 116.719, 38 115.573 C 38 115.223, 32.770 115.063, 26.377 115.218 L 14.754 115.500 10.877 122.337 C 8.745 126.097, 7 129.550, 7 130.009 C 7 130.469, 24.797 130.851, 46.549 130.857 L 86.099 130.869 82.410 124.184 C 80.381 120.508, 78.109 116.790, 77.360 115.921 C 76.612 115.053, 76 113.815, 76 113.171 C 76 112.527, 75.550 112, 75 112 C 74.450 112, 74 111.352, 74 110.559 C 74 108.225, 72.718 108.110, 69.016 110.114" stroke="none" fill="#1da2c6" fill-rule="evenodd"/></svg>